<svg width="516.6974609375px" height="121.383740234375px" xmlns="http://www.w3.org/2000/svg" viewBox="-8.348730468749977 14.308129882812501 516.6974609375 121.383740234375" style="background-color: rgba(0, 0, 0, 0);" preserveAspectRatio="xMidYMid"><defs><filter id="editing-vr"><feFlood flood-color="#f00" flood-opacity="0.7" result="c1"></feFlood><feFlood flood-color="#00f" flood-opacity="0.7" result="c3"></feFlood><feComposite operator="in" in="c1" in2="SourceAlpha" result="text-c1"></feComposite><feComposite operator="in" in="c3" in2="SourceAlpha" result="text-c3"></feComposite><feOffset in="text-c1" dx="5" dy="-1" result="text1"></feOffset><feOffset in="text-c3" dx="-5" dy="1" result="text3"></feOffset><feBlend in="SourceGraphic" in2="text1" mode="multiply" result="text4"></feBlend><feBlend in="text4" in2="text3" mode="multiply"></feBlend></filter></defs><g filter="url(#editing-vr)"><g transform="translate(67.34500607848167, 99.0078125)"><path d="M30.21-33.92L30.21-33.92L30.21-33.92Q25.02-33.92 21.25-35.65L21.25-35.65L19.20-25.28L31.55-25.28L31.55-25.28Q31.55-21.89 29.86-19.74L29.86-19.74L29.86-19.74Q28.16-17.60 25.09-17.60L25.09-17.60L25.09-17.60Q21.76-17.60 18.69-18.82L18.69-18.82L18.69-18.82Q18.05-19.07 17.98-19.14L17.98-19.14L14.34 0L0.38 0L8.51-42.24L37.06-42.24L37.06-42.24Q37.06-38.34 35.23-36.13L35.23-36.13L35.23-36.13Q33.41-33.92 30.21-33.92ZM50.75-3.52L50.75-3.52L50.75-3.52Q48.77 1.28 42.43 1.28L42.43 1.28L42.43 1.28Q39.23 1.28 37.18-0.96L37.18-0.96L37.18-0.96Q35.52-2.82 35.52-4.93L35.52-4.93L35.52-4.93Q35.52-9.73 37.76-20.22L37.76-20.22L42.43-44.80L55.42-46.08L49.22-13.70L49.22-13.70Q48.13-8.96 48.13-7.30L48.13-7.30L48.13-7.30Q48.13-3.65 50.75-3.52ZM71.55-3.52L71.55-3.52L71.55-3.52Q69.57 1.28 63.23 1.28L63.23 1.28L63.23 1.28Q59.97 1.28 57.92-0.96L57.92-0.96L57.92-0.96Q56.19-2.94 56.19-4.93L56.19-4.93L56.19-4.93Q56.19-10.11 58.56-20.22L58.56-20.22L60.93-32.64L73.92-33.92L70.02-13.70L70.02-13.70Q68.93-8.96 68.93-7.30L68.93-7.30L68.93-7.30Q68.93-3.65 71.55-3.52ZM62.08-41.54L62.08-41.54L62.08-41.54Q62.08-44.03 64.16-45.38L64.16-45.38L64.16-45.38Q66.24-46.72 69.25-46.72L69.25-46.72L69.25-46.72Q72.26-46.72 74.08-45.38L74.08-45.38L74.08-45.38Q75.90-44.03 75.90-41.54L75.90-41.54L75.90-41.54Q75.90-39.04 73.89-37.76L73.89-37.76L73.89-37.76Q71.87-36.48 68.86-36.48L68.86-36.48L68.86-36.48Q65.86-36.48 63.97-37.76L63.97-37.76L63.97-37.76Q62.08-39.04 62.08-41.54ZM108.42-26.62L108.42-26.62L108.42-26.62Q108.42-23.94 106.18-22.27L106.18-22.27L106.18-22.27Q103.94-20.61 100.29-20.61L100.29-20.61L100.29-20.61Q98.75-20.61 97.86-21.06L97.86-21.06L97.86-21.06Q98.56-22.72 98.78-24.80L98.78-24.80L98.78-24.80Q99.01-26.88 99.01-27.46L99.01-27.46L99.01-27.46Q99.01-30.14 97.15-30.14L97.15-30.14L97.15-30.14Q95.87-30.14 94.43-28.54L94.43-28.54L94.43-28.54Q92.99-26.94 91.78-24.45L91.78-24.45L91.78-24.45Q89.09-18.69 89.09-12.86L89.09-12.86L89.09-12.86Q89.09-9.66 90.30-8.22L90.30-8.22L90.30-8.22Q91.52-6.78 94.21-6.78L94.21-6.78L94.21-6.78Q97.92-6.78 100.86-9.86L100.86-9.86L100.86-9.86Q101.70-10.82 102.14-11.90L102.14-11.90L102.14-11.90Q104.58-10.62 104.58-7.10L104.58-7.10L104.58-7.10Q104.58-3.52 100.61-1.15L100.61-1.15L100.61-1.15Q96.51 1.28 89.98 1.28L89.98 1.28L89.98 1.28Q76.99 1.28 76.99-12.48L76.99-12.48L76.99-12.48Q76.99-22.53 82.69-28.29L82.69-28.29L82.69-28.29Q88.19-33.92 98.30-33.92L98.30-33.92L98.30-33.92Q108.42-33.92 108.42-26.62ZM126.66-30.34L126.66-30.34L126.66-30.34Q130.11-33.92 137.41-33.92L137.41-33.92L137.41-33.92Q141.44-33.92 143.65-31.78L143.65-31.78L143.65-31.78Q145.86-29.63 145.86-25.70L145.86-25.70L145.86-25.70Q145.86-21.76 143.65-18.98L143.65-18.98L143.65-18.98Q141.44-16.19 137.34-15.04L137.34-15.04L137.34-15.04Q137.66-13.76 138.11-12.42L138.11-12.42L139.01-9.86L139.01-9.86Q140.22-6.59 141.18-5.44L141.18-5.44L141.18-5.44Q142.14-4.29 143.42-3.90L143.42-3.90L143.42-3.90Q142.72-1.28 140.16 0.13L140.16 0.13L140.16 0.13Q138.11 1.28 135.30 1.28L135.30 1.28L135.30 1.28Q127.04 1.28 125.95-11.46L125.95-11.46L125.95-11.46Q125.76-13.25 125.76-15.04L125.76-15.04L125.76-15.04Q128.96-15.94 131.20-18.94L131.20-18.94L131.20-18.94Q133.44-21.95 133.44-25.47L133.44-25.47L133.44-25.47Q133.44-28.99 130.94-28.99L130.94-28.99L130.94-28.99Q129.15-28.99 127.74-27.01L127.74-27.01L127.74-27.01Q126.34-25.02 125.70-21.63L125.70-21.63L121.47 0L108.54 1.28L117.50-44.80L130.37-46.08L128.90-38.46L128.90-38.46Q127.94-33.09 126.66-30.34ZM168.83-17.98L168.83-17.98L168.83-17.98Q171.14-22.08 171.14-26.24L171.14-26.24L171.14-26.24Q171.14-28.99 169.15-28.99L169.15-28.99L169.15-28.99Q167.62-28.99 166.02-26.37L166.02-26.37L166.02-26.37Q164.35-23.74 163.84-20.35L163.84-20.35L160.51 0L147.26 1.28L153.79-32.64L164.35-33.92L163.20-27.46L163.20-27.46Q166.34-33.92 173.38-33.92L173.38-33.92L173.38-33.92Q177.09-33.92 179.10-32L179.10-32L179.10-32Q181.12-30.08 181.12-26.14L181.12-26.14L181.12-26.14Q181.12-22.21 178.53-19.71L178.53-19.71L178.53-19.71Q175.94-17.22 171.52-17.22L171.52-17.22L171.52-17.22Q169.60-17.22 168.83-17.98ZM183.23-39.68L183.23-39.68L183.23-39.68Q185.09-43.52 190.24-43.52L190.24-43.52L190.24-43.52Q195.39-43.52 197.79-40.54L197.79-40.54L197.79-40.54Q200.19-37.57 200.19-30.72L200.19-30.72L200.19-7.87L215.74-42.18L223.36-42.18L203.46 0L188.48 0L186.56-30.72L186.56-30.72Q186.37-34.11 185.44-36.42L185.44-36.42L185.44-36.42Q184.51-38.72 183.23-39.68ZM236.16-3.52L236.16-3.52L236.16-3.52Q234.18 1.28 227.84 1.28L227.84 1.28L227.84 1.28Q224.58 1.28 222.53-0.96L222.53-0.96L222.53-0.96Q220.80-2.94 220.80-4.93L220.80-4.93L220.80-4.93Q220.80-10.11 223.17-20.22L223.17-20.22L225.54-32.64L238.53-33.92L234.62-13.70L234.62-13.70Q233.54-8.96 233.54-7.30L233.54-7.30L233.54-7.30Q233.54-3.65 236.16-3.52ZM226.69-41.54L226.69-41.54L226.69-41.54Q226.69-44.03 228.77-45.38L228.77-45.38L228.77-45.38Q230.85-46.72 233.86-46.72L233.86-46.72L233.86-46.72Q236.86-46.72 238.69-45.38L238.69-45.38L238.69-45.38Q240.51-44.03 240.51-41.54L240.51-41.54L240.51-41.54Q240.51-39.04 238.50-37.76L238.50-37.76L238.50-37.76Q236.48-36.48 233.47-36.48L233.47-36.48L233.47-36.48Q230.46-36.48 228.58-37.76L228.58-37.76L228.58-37.76Q226.69-39.04 226.69-41.54ZM267.52-10.82L267.52-10.82L267.52-10.82Q269.12-9.73 269.12-7.33L269.12-7.33L269.12-7.33Q269.12-4.93 267.90-3.39L267.90-3.39L267.90-3.39Q266.69-1.86 264.70-0.83L264.70-0.83L264.70-0.83Q260.61 1.28 256.19 1.28L256.19 1.28L256.19 1.28Q251.78 1.28 249.18 0.32L249.18 0.32L249.18 0.32Q246.59-0.64 244.86-2.43L244.86-2.43L244.86-2.43Q241.47-5.82 241.47-12.03L241.47-12.03L241.47-12.03Q241.47-21.70 246.72-27.58L246.72-27.58L246.72-27.58Q252.35-33.92 262.14-33.92L262.14-33.92L262.14-33.92Q268.22-33.92 271.23-31.36L271.23-31.36L271.23-31.36Q273.47-29.44 273.47-26.30L273.47-26.30L273.47-26.30Q273.47-15.04 254.02-15.04L254.02-15.04L254.02-15.04Q253.76-13.38 253.76-11.97L253.76-11.97L253.76-11.97Q253.76-9.02 255.07-7.90L255.07-7.90L255.07-7.90Q256.38-6.78 258.82-6.78L258.82-6.78L258.82-6.78Q261.25-6.78 263.84-7.90L263.84-7.90L263.84-7.90Q266.43-9.02 267.52-10.82ZM254.46-17.79L254.46-17.79L254.46-17.79Q259.01-17.79 261.63-20.61L261.63-20.61L261.63-20.61Q264.26-23.30 264.26-27.58L264.26-27.58L264.26-27.58Q264.26-29.06 263.71-29.86L263.71-29.86L263.71-29.86Q263.17-30.66 262.08-30.66L262.08-30.66L262.08-30.66Q260.99-30.66 260.06-30.24L260.06-30.24L260.06-30.24Q259.14-29.82 258.18-28.42L258.18-28.42L258.18-28.42Q255.81-25.22 254.46-17.79ZM323.39-10.69L323.39-10.69Q319.17-4.86 315.10-1.79L315.10-1.79L315.10-1.79Q311.04 1.28 306.85 1.28L306.85 1.28L306.85 1.28Q302.66 1.28 301.18 0.45L301.18 0.45L301.18-13.63L301.18-13.63Q297.54-3.90 291.01-0.13L291.01-0.13L291.01-0.13Q288.64 1.28 286.40 1.28L286.40 1.28L286.40 1.28Q282.11 1.28 280.26 0.45L280.26 0.45L280.26 0.45Q279.81-14.21 279.42-18.27L279.42-18.27L279.42-18.27Q279.04-22.34 278.72-24.83L278.72-24.83L278.72-24.83Q278.08-29.82 275.90-31.87L275.90-31.87L275.90-31.87Q278.66-33.92 282.50-33.92L282.50-33.92L282.50-33.92Q289.92-33.92 290.94-24.70L290.94-24.70L290.94-24.70Q291.20-22.53 291.20-20.22L291.20-20.22L291.20-20.22Q291.20-16.77 290.43-4.74L290.43-4.74L290.43-4.74Q291.97-5.44 293.60-7.97L293.60-7.97L293.60-7.97Q295.23-10.50 296.58-13.95L296.58-13.95L296.58-13.95Q299.58-21.95 299.58-28.86L299.58-28.86L299.58-28.86Q299.58-29.95 299.30-31.10L299.30-31.10L299.30-31.10Q299.01-32.26 298.69-32.58L298.69-32.58L298.69-32.58Q300.93-33.92 304.35-33.92L304.35-33.92L304.35-33.92Q307.78-33.92 309.41-31.58L309.41-31.58L309.41-31.58Q311.04-29.25 311.49-24.96L311.49-24.96L311.49-24.96Q312-19.52 312-16.26L312-16.26L312-16.26Q312-11.71 311.55-4.99L311.55-4.99L311.55-4.99Q314.75-7.30 317.38-14.85L317.38-14.85L317.38-14.85Q320-22.40 320-27.78L320-27.78L320-27.78Q320-30.14 319.62-31.55L319.62-31.55L319.62-31.55Q321.73-33.92 325.38-33.92L325.38-33.92L325.38-33.92Q327.62-33.92 329.25-32.70L329.25-32.70L329.25-32.70Q330.88-31.49 330.88-29.22L330.88-29.22L330.88-29.22Q330.88-26.94 330.21-24.51L330.21-24.51L330.21-24.51Q329.54-22.08 328.45-19.58L328.45-19.58L328.45-19.58Q326.34-14.59 323.39-10.69L323.39-10.69ZM352.64-17.98L352.64-17.98L352.64-17.98Q354.94-22.08 354.94-26.24L354.94-26.24L354.94-26.24Q354.94-28.99 352.96-28.99L352.96-28.99L352.96-28.99Q351.42-28.99 349.82-26.37L349.82-26.37L349.82-26.37Q348.16-23.74 347.65-20.35L347.65-20.35L344.32 0L331.07 1.28L337.60-32.64L348.16-33.92L347.01-27.46L347.01-27.46Q350.14-33.92 357.18-33.92L357.18-33.92L357.18-33.92Q360.90-33.92 362.91-32L362.91-32L362.91-32Q364.93-30.08 364.93-26.14L364.93-26.14L364.93-26.14Q364.93-22.21 362.34-19.71L362.34-19.71L362.34-19.71Q359.74-17.22 355.33-17.22L355.33-17.22L355.33-17.22Q353.41-17.22 352.64-17.98Z" fill="#444"></path></g></g><style>text {
  font-size: 64px;
  font-family: Arial Black;
  dominant-baseline: central;
  text-anchor: middle;
}</style></svg>